<svg aria-hidden="true" style="position: absolute; width: 0; height: 0; overflow: hidden;" version="1.1" xmlns="http://www.w3.org/2000/svg" xmlns:xlink="http://www.w3.org/1999/xlink">
<defs>
<symbol id="icon-logo" viewBox="0 0 32 32">
<path  d="M21.934 9.027c-0.169-0.238-0.351-0.46-0.548-0.662-1.246-1.276-3.085-1.896-5.62-1.896-2.494 0-4.303 0.6-5.531 1.834-0.215 0.217-0.41 0.459-0.592 0.716 2.245 1.62 4.452 2.441 6.559 2.441 2.827-0 4.868-1.606 5.733-2.434zM15.765 29.202c-1.356 0-2.507-0.049-3.495-0.154l-0 2.513c1.201 0.288 2.455 0.441 3.744 0.441 1.112 0 2.197-0.113 3.245-0.329v-2.599c-0.993 0.087-2.147 0.128-3.494 0.128z"></path>
<path  d="M32.015 16.001c0-8.836-7.164-16-16-16s-16 7.164-16 16c0 6.841 4.294 12.68 10.334 14.968l0.002-2.248c-1.206-0.304-2.066-0.763-2.711-1.413-1.447-1.458-1.519-3.556-1.5-6.663-1.2-0.305-2.086-1.269-2.086-2.423v-0.619c0-1.154 0.888-2.12 2.091-2.423 0.116-3.837 0.986-6.479 2.729-8.23 1.585-1.593 3.903-2.4 6.892-2.4 3.037 0 5.39 0.833 6.994 2.475 1.707 1.747 2.572 4.403 2.648 8.074 1.441 0.138 2.57 1.202 2.57 2.505v0.619c0 1.323-1.164 2.4-2.637 2.511-0.002 0.155-0.003 0.312-0.005 0.461-0.044 4.624-0.292 6.799-4.155 7.61v2.346c6.302-2.148 10.835-8.119 10.835-15.148z"></path>
<path  d="M23.414 21.175c0.001-0.132 0.003-0.271 0.004-0.408l-2.082 0.017 0.010 2.677-0.070 0.174c-0.439 1.094-1.444 1.785-2.623 1.806-0.018 0-0.036 0.001-0.053 0.001-1.156 0-2.16-0.653-2.63-1.715l-0.082-0.186 0.003-2.755-7.833-0.028c-0.013 2.564 0.048 4.296 0.943 5.197 0.922 0.929 2.945 1.326 6.762 1.326 7.591 0 7.596-0.578 7.649-6.106z"></path>
<path  d="M17.809 23.103c0.258 0.394 0.681 0.421 0.812 0.419 0.135-0.002 0.561-0.044 0.804-0.459l-0.016-4.183 5.687-0.046c0.549 0 0.96-0.323 0.96-0.612v-0.619c0-0.289-0.411-0.612-0.96-0.612h-18.164c-0.549 0-0.96 0.323-0.96 0.612v0.619c0 0.289 0.411 0.612 0.96 0.612l10.881 0.039-0.004 4.23zM22.825 10.814c-1.243 1.074-3.524 2.567-6.624 2.567-2.436 0-4.934-0.891-7.429-2.633-0.412 1.162-0.645 2.588-0.71 4.322h15.428c-0.040-1.681-0.261-3.094-0.666-4.257z"></path>
<path fill="#fff" style="fill: var(--color2, #fff)" d="M25.334 21.193c0.001-0.149 0.003-0.306 0.005-0.461 1.473-0.111 2.637-1.188 2.637-2.511v-0.619c0-1.303-1.129-2.367-2.57-2.505-0.076-3.671-0.941-6.327-2.648-8.074-1.604-1.642-3.957-2.475-6.994-2.475-2.989 0-5.308 0.807-6.892 2.4-1.743 1.751-2.613 4.393-2.729 8.23-1.203 0.304-2.091 1.269-2.091 2.423v0.619c0 1.153 0.887 2.118 2.086 2.423-0.018 3.107 0.053 5.205 1.5 6.663 0.645 0.65 1.505 1.109 2.711 1.413l-0.002 2.248v0.047s0.652 0.232 0.948 0.321c0.268 0.080 0.973 0.275 0.973 0.275v-0.051l0-2.513c0.988 0.105 2.139 0.154 3.495 0.154 1.348 0 2.501-0.041 3.495-0.128v2.68s0.744-0.171 0.988-0.238c0.236-0.064 0.932-0.286 0.932-0.286v-2.427c3.863-0.811 4.111-2.986 4.155-7.61zM10.234 8.304c1.228-1.234 3.038-1.834 5.531-1.834 2.536 0 4.374 0.62 5.62 1.896 0.197 0.202 0.379 0.424 0.548 0.662-0.865 0.828-2.906 2.434-5.733 2.434-2.107 0-4.313-0.822-6.559-2.441 0.183-0.257 0.377-0.5 0.592-0.716zM8.772 10.749c2.495 1.741 4.993 2.633 7.429 2.633 3.101 0 5.381-1.493 6.624-2.567 0.404 1.162 0.625 2.575 0.666 4.257h-15.428c0.064-1.734 0.298-3.16 0.71-4.322zM6.933 18.834c-0.549 0-0.96-0.323-0.96-0.612v-0.619c0-0.289 0.411-0.612 0.96-0.612h18.164c0.549 0 0.96 0.323 0.96 0.612v0.619c0 0.289-0.411 0.612-0.96 0.612l-5.687 0.046 0.016 4.183c-0.243 0.415-0.669 0.456-0.804 0.459-0.131 0.002-0.554-0.024-0.812-0.419l0.004-4.23-10.881-0.039zM15.765 27.282c-3.817 0-5.84-0.397-6.762-1.326-0.895-0.902-0.957-2.633-0.943-5.197l7.833 0.028-0.003 2.755 0.082 0.186c0.47 1.062 1.474 1.715 2.63 1.715 0.017 0 0.036-0.001 0.053-0.001 1.178-0.021 2.183-0.713 2.623-1.806l0.070-0.174-0.010-2.677 2.082-0.017c-0.001 0.136-0.003 0.276-0.004 0.408-0.053 5.528-0.058 6.106-7.649 6.106z"></path>
</symbol>
<symbol id="icon-burger-menu" viewBox="0 0 46 32">
<path fill="none" stroke="#d41443" style="stroke: var(--color1, #d41443)" stroke-linejoin="miter" stroke-linecap="butt" stroke-miterlimit="4" stroke-width="2.2857" d="M0 2.286h45.714"></path>
<path fill="none" stroke="#d41443" style="stroke: var(--color1, #d41443)" stroke-linejoin="miter" stroke-linecap="butt" stroke-miterlimit="4" stroke-width="2.2857" d="M0 16h45.714"></path>
<path fill="none" stroke="#d41443" style="stroke: var(--color1, #d41443)" stroke-linejoin="miter" stroke-linecap="butt" stroke-miterlimit="4" stroke-width="2.2857" d="M0 29.714h45.714"></path>
</symbol>
<symbol id="icon-readMore" viewBox="0 0 26 32">
<path fill="none" stroke="#d41443" style="stroke: var(--color1, #d41443)" stroke-linejoin="round" stroke-linecap="round" stroke-miterlimit="4" stroke-width="6.4" d="M5.172 3.2l14.169 12.8-14.169 12.8"></path>
</symbol>
<symbol id="icon-arrow-right" viewBox="0 0 32 32">
<path d="M19.414 27.414l10-10c0.781-0.781 0.781-2.047 0-2.828l-10-10c-0.781-0.781-2.047-0.781-2.828 0s-0.781 2.047 0 2.828l6.586 6.586h-19.172c-1.105 0-2 0.895-2 2s0.895 2 2 2h19.172l-6.586 6.586c-0.39 0.39-0.586 0.902-0.586 1.414s0.195 1.024 0.586 1.414c0.781 0.781 2.047 0.781 2.828 0z"></path>
</symbol>
<symbol id="icon-close-btn" viewBox="0 0 32 32">
<path fill="none" stroke="#fff" stroke-width="2" stroke-miterlimit="4" stroke-linecap="butt" stroke-linejoin="miter" style="stroke: var(--color1, #fff)" d="M2.519 2l26.963 28"></path>
<path fill="none" stroke="#fff" stroke-width="2" stroke-miterlimit="4" stroke-linecap="butt" stroke-linejoin="miter" style="stroke: var(--color1, #fff)" d="M2 29.481l28-26.963"></path>
</symbol>
<symbol id="icon-user" viewBox="0 0 32 32">
<path d="M0 32v-3c0-4.484 5.649-6.179 13.099-6.862-1.636-1.014-2.92-3.864-3.589-6.14-0.003 0-0.006 0.002-0.010 0.002-0.068 0-1.5-1.791-1.5-4 0-1.938-0.138-3.554 1.007-3.92-0.001-0.027-0.007-0.053-0.007-0.080 0-2.457 1.271-4.61 3.187-5.859 0.495-1.235 2.004-2.141 3.813-2.141s3.318 0.906 3.813 2.141c1.916 1.249 3.187 3.402 3.187 5.859 0 0.027-0.006 0.053-0.007 0.080 1.145 0.366 1.007 1.982 1.007 3.92 0 2.209-1.588 4-1.5 4-0.004 0-0.007-0.002-0.010-0.002-0.669 2.275-1.953 5.126-3.589 6.14 7.45 0.683 13.099 2.315 13.099 6.862v3h-32z"></path>
</symbol>
<symbol id="icon-phone" viewBox="0 0 32 32">
<path d="M2.126 1.188c1.278-1.281 5.141-1.495 5.17-0.817 0.029 0.677 3.479 8.191 3.509 8.869s-2.274 2.987-2.948 3.663c-0.668 0.669 4.508 6.533 4.606 6.644 0.11 0.099 5.96 5.287 6.628 4.617 0.674-0.676 2.979-2.985 3.653-2.955 0.676 0.029 8.173 3.487 8.849 3.518 0.676 0.029 0.463 3.9-0.815 5.182-1.093 1.095-6.752 5.071-16.592-2.029-1.079-0.622-2.788-2.049-5.38-4.646-0.001-0.001-0.003-0.003-0.005-0.004-0.002-0.003-0.004-0.004-0.006-0.006s-0.004-0.004-0.006-0.006c-0.001-0.002-0.003-0.004-0.004-0.005-2.59-2.598-4.014-4.312-4.635-5.393-7.083-9.864-3.116-15.537-2.024-16.632z"></path>
</symbol>
<symbol id="icon-email" viewBox="0 0 32 32">
<path d="M29 4h-26c-1.657 0-3 1.343-3 3v18c0 1.656 1.343 3 3 3h26c1.657 0 3-1.344 3-3v-18c0-1.657-1.343-3-3-3zM2.741 25.99l-0.731-0.732 8.249-8.248 0.731 0.732-8.249 8.248zM29.259 25.99l-8.249-8.248 0.731-0.732 8.249 8.248-0.731 0.732zM17 19.325v0.675h-2v-0.675l-12.997-12.050 1.272-1.272 12.725 11.798 12.725-11.798 1.272 1.272-12.997 12.050z"></path>
</symbol>
<symbol id="icon-city" viewBox="0 0 32 32">
<path d="M0 32h16v-32h-16v32zM10 4h4v4h-4v-4zM10 12h4v4h-4v-4zM10 20h4v4h-4v-4zM2 4h4v4h-4v-4zM2 12h4v4h-4v-4zM2 20h4v4h-4v-4zM18 10h14v2h-14zM18 32h4v-8h6v8h4v-18h-14z"></path>
</symbol>
<symbol id="icon-map" viewBox="0 0 32 32">
<path d="M0 6l10-4v24l-10 4z"></path>
<path d="M12 1l10 6v23l-10-5z"></path>
<path d="M24 7l8-6v24l-8 6z"></path>
</symbol>
<symbol id="icon-btn-white" viewBox="0 0 26 32">
<path fill="none" stroke="#fff" style="stroke: var(--color1, #fff)" stroke-linejoin="round" stroke-linecap="round" stroke-miterlimit="4" stroke-width="6.4" d="M5.172 3.2l14.169 12.8-14.169 12.8"></path>
</symbol>

<symbol id="icon-facebook" viewBox="0 0 16 32">
<path d="M14.266 15.97h-4.176v15.39h-6.327v-15.39h-3.009v-5.409h3.009v-3.5c0-2.503 1.182-6.422 6.384-6.422l4.687 0.020v5.25h-3.401c-0.558 0-1.342 0.28-1.342 1.474v3.183h4.729l-0.553 5.403z"></path>
</symbol>
<symbol id="icon-github" viewBox="0 0 32 32">
<path d="M16 0.941c-8.271 0-15.059 6.788-15.059 15.059 0 7.058 4.953 13.47 11.529 15.059v-4.982c-0.652 0.143-1.251 0.147-1.915-0.049-0.89-0.263-1.613-0.856-2.15-1.76-0.342-0.577-0.949-1.203-1.581-1.157l-0.155-1.758c1.368-0.117 2.551 0.833 3.254 2.013 0.312 0.525 0.671 0.832 1.132 0.969 0.446 0.131 0.924 0.068 1.481-0.129 0.14-1.116 0.651-1.534 1.037-2.122v-0.001c-3.922-0.585-5.486-2.666-6.106-4.308-0.822-2.181-0.381-4.905 1.073-6.627 0.028-0.034 0.079-0.121 0.060-0.183-0.667-2.014 0.146-3.679 0.176-3.856 0.769 0.228 0.894-0.229 3.342 1.258l0.423 0.254c0.177 0.105 0.121 0.045 0.298 0.032 1.022-0.278 2.099-0.431 3.16-0.445 1.069 0.014 2.14 0.167 3.204 0.456l0.137 0.014c-0.012-0.002 0.037-0.009 0.12-0.058 3.057-1.852 2.947-1.247 3.767-1.513 0.030 0.177 0.831 1.87 0.172 3.858-0.089 0.274 2.65 2.782 1.132 6.809-0.62 1.643-2.184 3.724-6.106 4.309v0.001c0.503 0.766 1.107 1.174 1.104 2.755v6.219c6.577-1.589 11.529-8.001 11.529-15.059 0-8.271-6.787-15.059-15.059-15.059v0z"></path>
</symbol>
<symbol id="icon-telegram" viewBox="0 0 40 32">
<path d="M16.205 20.751l-0.635 8.339c0.909 0 1.302-0.364 1.774-0.802l4.261-3.801 8.829 6.035c1.619 0.842 2.76 0.399 3.197-1.39l5.797-25.346c0.514-2.234-0.866-3.108-2.443-2.56l-34.065 12.172c-2.325 0.842-2.29 2.052-0.395 2.6l8.709 2.528 20.229-11.814c0.952-0.588 1.818-0.263 1.106 0.326l-16.364 13.713z"></path>
</symbol>
</defs>
</svg>