<svg aria-hidden="true" style="position: absolute; width: 0; height: 0; overflow: hidden;" version="1.1" xmlns="http://www.w3.org/2000/svg" xmlns:xlink="http://www.w3.org/1999/xlink">
<defs>
<symbol id="icon-logo" viewBox="0 0 32 32">
<path  d="M21.934 9.027c-0.169-0.238-0.351-0.46-0.548-0.662-1.246-1.276-3.085-1.896-5.62-1.896-2.494 0-4.303 0.6-5.531 1.834-0.215 0.217-0.41 0.459-0.592 0.716 2.245 1.62 4.452 2.441 6.559 2.441 2.827-0 4.868-1.606 5.733-2.434zM15.765 29.202c-1.356 0-2.507-0.049-3.495-0.154l-0 2.513c1.201 0.288 2.455 0.441 3.744 0.441 1.112 0 2.197-0.113 3.245-0.329v-2.599c-0.993 0.087-2.147 0.128-3.494 0.128z"></path>
<path  d="M32.015 16.001c0-8.836-7.164-16-16-16s-16 7.164-16 16c0 6.841 4.294 12.68 10.334 14.968l0.002-2.248c-1.206-0.304-2.066-0.763-2.711-1.413-1.447-1.458-1.519-3.556-1.5-6.663-1.2-0.305-2.086-1.269-2.086-2.423v-0.619c0-1.154 0.888-2.12 2.091-2.423 0.116-3.837 0.986-6.479 2.729-8.23 1.585-1.593 3.903-2.4 6.892-2.4 3.037 0 5.39 0.833 6.994 2.475 1.707 1.747 2.572 4.403 2.648 8.074 1.441 0.138 2.57 1.202 2.57 2.505v0.619c0 1.323-1.164 2.4-2.637 2.511-0.002 0.155-0.003 0.312-0.005 0.461-0.044 4.624-0.292 6.799-4.155 7.61v2.346c6.302-2.148 10.835-8.119 10.835-15.148z"></path>
<path  d="M23.414 21.175c0.001-0.132 0.003-0.271 0.004-0.408l-2.082 0.017 0.010 2.677-0.070 0.174c-0.439 1.094-1.444 1.785-2.623 1.806-0.018 0-0.036 0.001-0.053 0.001-1.156 0-2.16-0.653-2.63-1.715l-0.082-0.186 0.003-2.755-7.833-0.028c-0.013 2.564 0.048 4.296 0.943 5.197 0.922 0.929 2.945 1.326 6.762 1.326 7.591 0 7.596-0.578 7.649-6.106z"></path>
<path  d="M17.809 23.103c0.258 0.394 0.681 0.421 0.812 0.419 0.135-0.002 0.561-0.044 0.804-0.459l-0.016-4.183 5.687-0.046c0.549 0 0.96-0.323 0.96-0.612v-0.619c0-0.289-0.411-0.612-0.96-0.612h-18.164c-0.549 0-0.96 0.323-0.96 0.612v0.619c0 0.289 0.411 0.612 0.96 0.612l10.881 0.039-0.004 4.23zM22.825 10.814c-1.243 1.074-3.524 2.567-6.624 2.567-2.436 0-4.934-0.891-7.429-2.633-0.412 1.162-0.645 2.588-0.71 4.322h15.428c-0.040-1.681-0.261-3.094-0.666-4.257z"></path>
<path fill="#fff" style="fill: var(--color2, #fff)" d="M25.334 21.193c0.001-0.149 0.003-0.306 0.005-0.461 1.473-0.111 2.637-1.188 2.637-2.511v-0.619c0-1.303-1.129-2.367-2.57-2.505-0.076-3.671-0.941-6.327-2.648-8.074-1.604-1.642-3.957-2.475-6.994-2.475-2.989 0-5.308 0.807-6.892 2.4-1.743 1.751-2.613 4.393-2.729 8.23-1.203 0.304-2.091 1.269-2.091 2.423v0.619c0 1.153 0.887 2.118 2.086 2.423-0.018 3.107 0.053 5.205 1.5 6.663 0.645 0.65 1.505 1.109 2.711 1.413l-0.002 2.248v0.047s0.652 0.232 0.948 0.321c0.268 0.080 0.973 0.275 0.973 0.275v-0.051l0-2.513c0.988 0.105 2.139 0.154 3.495 0.154 1.348 0 2.501-0.041 3.495-0.128v2.68s0.744-0.171 0.988-0.238c0.236-0.064 0.932-0.286 0.932-0.286v-2.427c3.863-0.811 4.111-2.986 4.155-7.61zM10.234 8.304c1.228-1.234 3.038-1.834 5.531-1.834 2.536 0 4.374 0.62 5.62 1.896 0.197 0.202 0.379 0.424 0.548 0.662-0.865 0.828-2.906 2.434-5.733 2.434-2.107 0-4.313-0.822-6.559-2.441 0.183-0.257 0.377-0.5 0.592-0.716zM8.772 10.749c2.495 1.741 4.993 2.633 7.429 2.633 3.101 0 5.381-1.493 6.624-2.567 0.404 1.162 0.625 2.575 0.666 4.257h-15.428c0.064-1.734 0.298-3.16 0.71-4.322zM6.933 18.834c-0.549 0-0.96-0.323-0.96-0.612v-0.619c0-0.289 0.411-0.612 0.96-0.612h18.164c0.549 0 0.96 0.323 0.96 0.612v0.619c0 0.289-0.411 0.612-0.96 0.612l-5.687 0.046 0.016 4.183c-0.243 0.415-0.669 0.456-0.804 0.459-0.131 0.002-0.554-0.024-0.812-0.419l0.004-4.23-10.881-0.039zM15.765 27.282c-3.817 0-5.84-0.397-6.762-1.326-0.895-0.902-0.957-2.633-0.943-5.197l7.833 0.028-0.003 2.755 0.082 0.186c0.47 1.062 1.474 1.715 2.63 1.715 0.017 0 0.036-0.001 0.053-0.001 1.178-0.021 2.183-0.713 2.623-1.806l0.070-0.174-0.010-2.677 2.082-0.017c-0.001 0.136-0.003 0.276-0.004 0.408-0.053 5.528-0.058 6.106-7.649 6.106z"></path>
</symbol>
<symbol id="icon-burger-menu" viewBox="0 0 46 32">
<path fill="none" stroke="#d41443" style="stroke: var(--color1, #d41443)" stroke-linejoin="miter" stroke-linecap="butt" stroke-miterlimit="4" stroke-width="2.2857" d="M0 2.286h45.714"></path>
<path fill="none" stroke="#d41443" style="stroke: var(--color1, #d41443)" stroke-linejoin="miter" stroke-linecap="butt" stroke-miterlimit="4" stroke-width="2.2857" d="M0 16h45.714"></path>
<path fill="none" stroke="#d41443" style="stroke: var(--color1, #d41443)" stroke-linejoin="miter" stroke-linecap="butt" stroke-miterlimit="4" stroke-width="2.2857" d="M0 29.714h45.714"></path>
</symbol>
<symbol id="icon-readMore" viewBox="0 0 26 32">
<path fill="none" stroke="#d41443" style="stroke: var(--color1, #d41443)" stroke-linejoin="round" stroke-linecap="round" stroke-miterlimit="4" stroke-width="6.4" d="M5.172 3.2l14.169 12.8-14.169 12.8"></path>
</symbol>
<symbol id="icon-arrow-right" viewBox="0 0 32 32">
<path d="M19.414 27.414l10-10c0.781-0.781 0.781-2.047 0-2.828l-10-10c-0.781-0.781-2.047-0.781-2.828 0s-0.781 2.047 0 2.828l6.586 6.586h-19.172c-1.105 0-2 0.895-2 2s0.895 2 2 2h19.172l-6.586 6.586c-0.39 0.39-0.586 0.902-0.586 1.414s0.195 1.024 0.586 1.414c0.781 0.781 2.047 0.781 2.828 0z"></path>
</symbol>
<symbol id="icon-close-btn" viewBox="0 0 32 32">
<path fill="none" stroke="#fff" stroke-width="2" stroke-miterlimit="4" stroke-linecap="butt" stroke-linejoin="miter" style="stroke: var(--color1, #fff)" d="M2.519 2l26.963 28"></path>
<path fill="none" stroke="#fff" stroke-width="2" stroke-miterlimit="4" stroke-linecap="butt" stroke-linejoin="miter" style="stroke: var(--color1, #fff)" d="M2 29.481l28-26.963"></path>
</symbol>
<symbol id="icon-user" viewBox="0 0 32 32">
<path d="M0 32v-3c0-4.484 5.649-6.179 13.099-6.862-1.636-1.014-2.92-3.864-3.589-6.14-0.003 0-0.006 0.002-0.010 0.002-0.068 0-1.5-1.791-1.5-4 0-1.938-0.138-3.554 1.007-3.92-0.001-0.027-0.007-0.053-0.007-0.080 0-2.457 1.271-4.61 3.187-5.859 0.495-1.235 2.004-2.141 3.813-2.141s3.318 0.906 3.813 2.141c1.916 1.249 3.187 3.402 3.187 5.859 0 0.027-0.006 0.053-0.007 0.080 1.145 0.366 1.007 1.982 1.007 3.92 0 2.209-1.588 4-1.5 4-0.004 0-0.007-0.002-0.010-0.002-0.669 2.275-1.953 5.126-3.589 6.14 7.45 0.683 13.099 2.315 13.099 6.862v3h-32z"></path>
</symbol>
<symbol id="icon-phone" viewBox="0 0 32 32">
<path d="M2.126 1.188c1.278-1.281 5.141-1.495 5.17-0.817 0.029 0.677 3.479 8.191 3.509 8.869s-2.274 2.987-2.948 3.663c-0.668 0.669 4.508 6.533 4.606 6.644 0.11 0.099 5.96 5.287 6.628 4.617 0.674-0.676 2.979-2.985 3.653-2.955 0.676 0.029 8.173 3.487 8.849 3.518 0.676 0.029 0.463 3.9-0.815 5.182-1.093 1.095-6.752 5.071-16.592-2.029-1.079-0.622-2.788-2.049-5.38-4.646-0.001-0.001-0.003-0.003-0.005-0.004-0.002-0.003-0.004-0.004-0.006-0.006s-0.004-0.004-0.006-0.006c-0.001-0.002-0.003-0.004-0.004-0.005-2.59-2.598-4.014-4.312-4.635-5.393-7.083-9.864-3.116-15.537-2.024-16.632z"></path>
</symbol>
<symbol id="icon-email" viewBox="0 0 32 32">
<path d="M29 4h-26c-1.657 0-3 1.343-3 3v18c0 1.656 1.343 3 3 3h26c1.657 0 3-1.344 3-3v-18c0-1.657-1.343-3-3-3zM2.741 25.99l-0.731-0.732 8.249-8.248 0.731 0.732-8.249 8.248zM29.259 25.99l-8.249-8.248 0.731-0.732 8.249 8.248-0.731 0.732zM17 19.325v0.675h-2v-0.675l-12.997-12.050 1.272-1.272 12.725 11.798 12.725-11.798 1.272 1.272-12.997 12.050z"></path>
</symbol>
<symbol id="icon-city" viewBox="0 0 32 32">
<path d="M0 32h16v-32h-16v32zM10 4h4v4h-4v-4zM10 12h4v4h-4v-4zM10 20h4v4h-4v-4zM2 4h4v4h-4v-4zM2 12h4v4h-4v-4zM2 20h4v4h-4v-4zM18 10h14v2h-14zM18 32h4v-8h6v8h4v-18h-14z"></path>
</symbol>
<symbol id="icon-map" viewBox="0 0 32 32">
<path d="M0 6l10-4v24l-10 4z"></path>
<path d="M12 1l10 6v23l-10-5z"></path>
<path d="M24 7l8-6v24l-8 6z"></path>
</symbol>
<symbol id="icon-btn-white" viewBox="0 0 26 32">
<path fill="none" stroke="#fff" style="stroke: var(--color1, #fff)" stroke-linejoin="round" stroke-linecap="round" stroke-miterlimit="4" stroke-width="6.4" d="M5.172 3.2l14.169 12.8-14.169 12.8"></path>
</symbol>

<symbol id="icon-facebook" viewBox="0 0 16 32">
<path fill="#fff" style="fill: var(--color1, #fff)" d="M14.143 15.972h-4.034v14.865h-6.112v-14.865h-2.907v-5.224h2.907v-3.381c0-2.418 1.142-6.203 6.166-6.203l4.527 0.019v5.071h-3.285c-0.539 0-1.296 0.271-1.296 1.424v3.075h4.567l-0.534 5.219z"></path>
</symbol>
<symbol id="icon-git" viewBox="0 0 32 32">
<path fill="#fff" style="fill: var(--color1, #fff)" d="M16 0c-8.788 0-16 7.212-16 16 0 7.499 5.262 14.312 12.25 16v-5.293c-0.692 0.152-1.33 0.156-2.034-0.052-0.946-0.279-1.714-0.909-2.284-1.869-0.364-0.613-1.008-1.278-1.68-1.23l-0.165-1.868c1.453-0.124 2.711 0.886 3.457 2.14 0.332 0.558 0.713 0.884 1.203 1.029 0.473 0.14 0.982 0.072 1.574-0.137 0.149-1.186 0.692-1.63 1.102-2.255v-0.001c-4.167-0.622-5.828-2.832-6.488-4.578-0.874-2.317-0.405-5.212 1.14-7.041 0.030-0.036 0.084-0.129 0.063-0.194-0.708-2.139 0.155-3.909 0.187-4.097 0.817 0.242 0.95-0.243 3.551 1.337l0.449 0.27c0.188 0.112 0.129 0.048 0.317 0.034 1.086-0.295 2.23-0.458 3.358-0.472 1.136 0.015 2.273 0.178 3.404 0.484l0.145 0.015c-0.013-0.002 0.040-0.009 0.127-0.062 3.248-1.968 3.132-1.324 4.003-1.608 0.032 0.188 0.883 1.987 0.182 4.099-0.095 0.291 2.816 2.956 1.203 7.235-0.659 1.746-2.32 3.957-6.487 4.578v0.001c0.534 0.814 1.176 1.247 1.173 2.927v6.608c6.988-1.688 12.25-8.501 12.25-16 0-8.788-7.212-16-16-16v0z"></path>
</symbol>
<symbol id="icon-telegram" viewBox="0 0 44 32">
<path fill="#fff" style="fill: var(--color1, #fff)" d="M17.343 21.048l-0.675 8.86c0.966 0 1.384-0.387 1.885-0.852l4.527-4.038 9.381 6.412c1.72 0.895 2.933 0.424 3.397-1.477l6.157-26.929 0.002-0.002c0.546-2.374-0.92-3.302-2.596-2.72l-36.194 12.933c-2.47 0.895-2.433 2.18-0.42 2.762l9.253 2.686 21.494-12.552c1.011-0.625 1.931-0.279 1.175 0.346l-17.386 14.57z"></path>
</symbol>

</defs>
</svg>

</defs>
</svg>
